<svg id="svg" version="1.1" xmlns="http://www.w3.org/2000/svg" xmlns:xlink="http://www.w3.org/1999/xlink" width="400" height="300" viewBox="0, 0, 400,300"><g id="svgg"><path id="path0" d="M0.000 150.038 L 0.000 300.075 200.000 300.075 L 400.000 300.075 400.000 150.038 L 400.000 0.000 200.000 0.000 L 0.000 0.000 0.000 150.038 M218.483 104.341 C 218.963 104.624,219.355 105.029,219.355 105.241 C 219.355 105.453,219.501 105.626,219.679 105.626 C 220.335 105.626,229.940 115.481,229.755 115.964 C 229.572 116.441,228.740 116.502,222.163 116.522 C 219.416 116.530,219.060 116.342,216.804 113.685 L 215.604 112.271 194.826 112.250 L 174.049 112.228 173.971 128.207 L 173.893 144.186 170.167 144.271 C 168.118 144.317,166.329 144.243,166.192 144.106 C 166.055 143.969,165.919 136.741,165.890 128.043 L 165.838 112.228 163.583 112.228 C 160.279 112.228,159.940 111.838,159.940 108.031 C 159.940 105.536,160.024 105.049,160.552 104.483 L 161.164 103.826 189.388 103.826 C 215.514 103.826,217.677 103.864,218.483 104.341 M262.770 112.849 L 263.466 113.113 263.466 122.386 C 263.466 133.189,263.806 132.291,259.714 132.283 C 255.628 132.275,255.664 132.304,255.664 129.022 L 255.664 126.332 215.786 126.332 C 179.699 126.332,175.891 126.286,175.726 125.857 C 175.375 124.943,175.529 119.265,175.919 118.734 C 176.269 118.258,178.949 118.221,215.572 118.200 C 237.175 118.188,255.033 118.107,255.257 118.021 C 255.554 117.907,255.664 117.194,255.664 115.369 C 255.664 113.240,255.741 112.853,256.189 112.743 C 257.162 112.503,262.068 112.582,262.770 112.849 M276.137 113.526 C 278.146 115.012,278.899 118.558,277.565 120.254 C 273.949 124.851,267.541 121.884,268.817 116.204 C 269.526 113.050,273.518 111.590,276.137 113.526 M275.341 118.130 C 275.236 118.405,275.289 118.769,275.459 118.940 C 275.672 119.153,275.769 118.997,275.769 118.440 C 275.769 117.514,275.619 117.405,275.341 118.130 M163.850 118.691 C 164.325 119.263,164.548 125.391,164.113 125.916 C 163.832 126.254,162.034 126.332,154.510 126.332 L 145.253 126.332 145.170 135.859 C 145.124 141.099,145.187 145.535,145.310 145.716 C 145.594 146.134,215.007 146.293,216.089 145.878 C 216.482 145.727,218.998 143.419,221.680 140.750 L 226.557 135.896 226.557 132.531 C 226.557 127.816,226.566 127.806,230.678 127.924 C 233.468 128.004,233.904 128.088,234.186 128.599 C 234.364 128.920,234.592 129.250,234.695 129.332 C 234.797 129.415,234.779 131.170,234.656 133.233 C 234.532 135.296,234.496 137.094,234.575 137.229 C 235.211 138.315,234.230 139.569,227.113 146.770 C 217.934 156.056,218.701 154.640,220.704 158.601 C 221.612 160.397,222.356 162.108,222.356 162.403 C 222.356 162.699,222.488 162.941,222.650 162.941 C 222.812 162.941,223.037 163.311,223.151 163.764 C 223.265 164.217,223.738 165.232,224.203 166.021 C 224.668 166.809,225.140 167.821,225.253 168.270 C 225.365 168.719,225.637 169.266,225.857 169.486 C 226.077 169.706,226.257 170.119,226.257 170.404 C 226.257 170.689,226.400 171.066,226.576 171.242 C 227.437 172.103,226.021 172.543,222.392 172.543 C 218.597 172.543,218.272 172.434,217.461 170.893 C 216.978 169.976,213.886 163.459,213.545 162.641 C 213.442 162.393,213.233 161.988,213.081 161.740 C 212.929 161.493,212.378 160.345,211.856 159.190 C 211.333 158.035,210.616 156.515,210.261 155.814 L 209.615 154.539 186.803 154.538 C 144.881 154.537,137.450 154.448,137.128 153.938 C 136.521 152.978,136.761 119.289,137.379 118.730 C 138.332 117.868,163.137 117.831,163.850 118.691 M263.066 146.236 C 263.476 146.647,263.545 181.539,263.136 182.031 C 262.698 182.559,177.107 182.661,176.124 182.135 C 175.411 181.753,175.241 175.470,175.919 174.549 C 176.268 174.075,179.009 174.040,215.979 174.040 L 255.664 174.039 255.664 164.289 L 255.664 154.539 239.784 154.539 C 223.666 154.539,222.956 154.505,222.956 153.746 C 222.956 153.221,223.834 151.838,224.167 151.838 C 224.511 151.838,226.857 149.473,226.857 149.126 C 226.857 148.967,227.050 148.837,227.287 148.837 C 227.523 148.837,227.802 148.567,227.907 148.237 C 228.012 147.907,228.191 147.637,228.305 147.637 C 228.420 147.637,228.865 147.311,229.294 146.913 C 229.723 146.515,230.397 146.144,230.791 146.088 C 232.376 145.864,262.833 146.004,263.066 146.236 M173.683 156.399 C 173.954 156.670,174.044 160.714,174.044 172.753 L 174.044 188.747 176.534 188.747 C 177.904 188.747,179.154 188.876,179.311 189.034 C 179.619 189.342,179.605 195.747,179.295 196.248 C 179.049 196.646,161.755 196.654,160.710 196.256 C 159.949 195.967,159.940 195.926,159.940 192.716 C 159.940 188.740,159.935 188.747,163.131 188.747 C 166.205 188.747,165.871 190.748,165.894 172.162 C 165.905 163.618,165.995 156.495,166.095 156.333 C 166.366 155.895,173.238 155.954,173.683 156.399 M144.952 169.271 C 145.138 169.620,145.243 170.788,145.187 171.897 L 145.086 173.893 154.089 174.044 C 159.387 174.132,163.303 174.320,163.605 174.500 C 164.192 174.849,164.464 181.342,163.915 181.891 C 163.743 182.063,159.966 182.189,154.613 182.201 C 144.190 182.224,145.086 181.973,145.086 184.876 C 145.086 188.082,145.005 188.147,141.016 188.147 C 136.517 188.147,136.834 188.911,136.834 178.088 C 136.834 171.701,136.931 169.266,137.194 169.002 C 137.903 168.293,144.552 168.524,144.952 169.271 M232.691 184.422 C 232.953 184.683,233.439 185.527,233.773 186.297 C 234.812 188.697,234.639 188.584,237.541 188.747 L 240.210 188.897 240.295 192.305 C 240.412 196.961,241.350 196.549,230.631 196.549 C 219.937 196.549,220.855 196.932,220.855 192.470 C 220.855 188.607,220.747 188.747,223.730 188.747 C 225.907 188.747,225.989 188.626,225.056 186.797 C 224.452 185.611,224.286 184.516,224.656 184.146 C 225.116 183.687,232.199 183.930,232.691 184.422 " stroke="none" fill="#231c23" fill-rule="evenodd"></path><path id="path1" d="M161.268 105.426 C 161.184 105.647,161.154 106.963,161.202 108.352 L 161.290 110.878 163.778 111.028 C 166.986 111.221,166.847 110.893,166.832 118.230 C 166.825 121.613,166.825 128.736,166.831 134.059 L 166.842 143.736 169.842 143.736 L 172.843 143.736 172.918 134.509 C 172.959 129.434,172.945 122.301,172.887 118.657 C 172.792 112.742,172.835 111.979,173.290 111.525 C 173.760 111.054,175.380 111.022,194.603 111.097 L 215.407 111.178 217.797 113.503 L 220.186 115.829 224.422 115.829 C 226.751 115.829,228.657 115.762,228.657 115.680 C 228.657 115.599,226.293 113.168,223.403 110.279 L 218.149 105.026 189.785 105.026 C 166.423 105.026,161.394 105.097,161.268 105.426 M256.411 113.803 C 256.337 114.010,256.239 115.259,256.195 116.579 L 256.114 118.980 216.354 119.130 L 176.594 119.280 176.509 122.505 L 176.424 125.729 216.269 125.805 L 256.114 125.881 256.264 128.432 L 256.414 130.983 259.238 131.070 C 260.791 131.117,262.187 131.031,262.340 130.878 C 262.554 130.664,262.727 118.842,262.586 114.104 C 262.562 113.304,256.692 113.019,256.411 113.803 M272.193 113.550 C 272.431 113.782,274.537 113.860,274.753 113.645 C 274.871 113.526,274.316 113.428,273.518 113.428 C 272.721 113.428,272.124 113.483,272.193 113.550 M270.598 114.988 C 269.831 115.948,270.232 116.046,271.154 115.124 C 271.646 114.632,271.791 114.330,271.534 114.333 C 271.305 114.335,270.884 114.630,270.598 114.988 M272.168 117.454 C 272.168 119.076,273.472 119.490,274.402 118.163 C 274.995 117.316,275.003 116.429,274.419 116.429 C 274.119 116.429,273.968 116.729,273.968 117.329 C 273.968 118.726,272.957 118.314,272.929 116.906 C 272.903 115.571,272.168 116.101,272.168 117.454 M269.373 117.058 C 269.282 117.405,269.325 117.978,269.469 118.334 C 269.679 118.854,269.733 118.732,269.748 117.704 C 269.769 116.314,269.630 116.074,269.373 117.058 M276.272 119.250 C 276.175 119.503,276.215 119.785,276.361 119.875 C 276.754 120.118,277.087 119.427,276.743 119.083 C 276.551 118.891,276.387 118.949,276.272 119.250 M138.235 119.330 C 137.985 119.580,137.967 152.514,138.217 153.164 C 138.381 153.593,141.828 153.638,174.169 153.638 C 213.511 153.638,211.253 153.537,211.253 155.305 C 211.253 155.548,211.381 155.982,211.537 156.268 C 212.369 157.795,213.353 160.042,213.353 160.415 C 213.353 160.649,213.488 160.840,213.653 160.840 C 213.818 160.840,213.953 160.970,213.953 161.128 C 213.953 161.286,214.644 162.873,215.488 164.654 C 216.331 166.435,217.297 168.500,217.634 169.242 C 218.716 171.626,218.749 171.643,222.398 171.643 L 225.648 171.643 225.076 170.218 C 224.762 169.434,224.308 168.387,224.066 167.892 C 223.825 167.397,223.193 166.047,222.662 164.891 C 222.132 163.736,221.575 162.588,221.424 162.341 C 221.274 162.093,221.075 161.688,220.982 161.440 C 220.888 161.193,220.219 159.775,219.494 158.290 C 218.768 156.804,218.145 155.386,218.108 155.139 C 218.071 154.891,220.193 152.519,222.824 149.868 C 225.454 147.217,228.995 143.620,230.690 141.877 L 233.774 138.706 233.691 133.944 L 233.608 129.182 231.508 129.090 C 230.353 129.039,228.968 129.079,228.432 129.179 L 227.457 129.360 227.457 132.831 L 227.457 136.303 221.999 141.667 C 217.699 145.892,216.325 147.071,215.524 147.222 C 213.632 147.577,144.893 147.074,144.444 146.702 C 143.884 146.237,143.839 126.649,144.396 126.092 C 144.660 125.827,147.170 125.731,153.816 125.731 C 164.260 125.731,163.241 126.120,163.241 122.138 C 163.241 120.004,163.149 119.459,162.766 119.312 C 162.116 119.063,138.485 119.080,138.235 119.330 M270.391 119.633 C 270.364 120.045,271.182 120.930,271.589 120.930 C 271.743 120.930,271.868 120.728,271.868 120.480 C 271.868 120.233,271.609 120.030,271.293 120.030 C 270.976 120.030,270.650 119.861,270.566 119.655 C 270.460 119.391,270.408 119.385,270.391 119.633 M275.109 120.690 C 275.389 120.970,275.549 120.970,275.829 120.690 C 276.109 120.410,276.029 120.330,275.469 120.330 C 274.909 120.330,274.829 120.410,275.109 120.690 M272.318 121.530 C 272.420 121.695,272.841 121.830,273.254 121.830 C 273.677 121.830,273.923 121.700,273.818 121.530 C 273.716 121.365,273.295 121.230,272.883 121.230 C 272.459 121.230,272.213 121.361,272.318 121.530 M227.458 149.817 C 223.033 154.002,221.774 153.620,240.285 153.711 L 256.114 153.788 256.193 164.141 C 256.267 173.689,256.232 174.523,255.750 174.877 C 255.340 175.177,251.483 175.256,237.816 175.243 C 228.240 175.234,210.514 175.231,198.425 175.235 L 176.444 175.244 176.444 178.239 C 176.444 181.096,176.475 181.241,177.119 181.397 C 178.146 181.646,262.183 181.428,262.435 181.176 C 262.834 180.777,262.612 147.551,262.209 147.302 C 262.013 147.181,254.772 147.073,246.120 147.063 L 230.387 147.045 227.458 149.817 M167.113 157.258 C 166.962 157.351,166.854 157.756,166.872 158.158 C 166.910 159.014,166.883 181.937,166.839 185.886 C 166.801 189.273,166.736 189.347,163.836 189.347 C 161.066 189.347,161.140 189.247,161.140 192.973 L 161.140 195.649 169.810 195.649 C 179.697 195.649,178.847 195.927,178.841 192.699 C 178.834 189.302,178.872 189.347,175.996 189.347 C 174.368 189.347,173.417 189.219,173.226 188.972 C 173.048 188.742,172.922 182.579,172.901 173.059 C 172.883 164.514,172.788 157.392,172.690 157.234 C 172.506 156.937,167.600 156.958,167.113 157.258 M138.175 169.609 C 138.092 169.824,138.061 173.780,138.105 178.399 L 138.185 186.797 141.035 186.797 L 143.886 186.797 143.975 184.554 C 144.116 181.032,143.472 181.245,153.965 181.245 C 164.237 181.245,163.208 181.632,163.136 177.794 L 163.091 175.394 153.878 175.244 C 143.336 175.072,144.092 175.323,143.974 171.954 L 143.886 169.417 141.106 169.318 C 139.023 169.243,138.287 169.316,138.175 169.609 M225.881 185.074 C 225.232 185.218,225.199 185.029,226.218 187.021 C 227.286 189.109,227.100 189.347,224.407 189.347 C 221.803 189.347,221.611 189.827,222.027 195.274 C 222.049 195.565,224.011 195.649,230.758 195.649 L 239.460 195.649 239.495 193.173 C 239.552 189.204,239.678 189.358,236.390 189.352 C 234.178 189.348,234.061 189.313,233.885 188.609 C 233.783 188.204,233.510 187.714,233.279 187.522 C 233.048 187.330,232.858 186.925,232.858 186.622 C 232.858 185.148,229.200 184.336,225.881 185.074 " stroke="none" fill="#dad9d9" fill-rule="evenodd"></path><path id="path2" d="M160.934 104.832 C 160.399 105.466,160.400 105.468,160.990 104.979 C 161.541 104.523,163.934 104.485,189.844 104.529 C 205.383 104.555,218.031 104.469,217.951 104.339 C 217.870 104.209,205.131 104.121,189.641 104.145 L 161.477 104.188 160.934 104.832 M219.355 105.776 C 219.915 106.354,220.440 106.827,220.523 106.827 C 220.605 106.827,220.215 106.354,219.655 105.776 C 219.095 105.199,218.569 104.726,218.487 104.726 C 218.404 104.726,218.795 105.199,219.355 105.776 M222.656 109.077 C 223.719 110.150,224.656 111.028,224.739 111.028 C 224.821 111.028,224.019 110.150,222.956 109.077 C 221.893 108.005,220.955 107.127,220.873 107.127 C 220.790 107.127,221.592 108.005,222.656 109.077 M160.616 108.777 C 160.619 109.437,160.681 109.672,160.752 109.299 C 160.824 108.926,160.821 108.385,160.746 108.099 C 160.671 107.812,160.612 108.117,160.616 108.777 M160.240 110.335 C 160.240 110.835,161.680 111.999,162.094 111.834 C 162.366 111.725,162.332 111.668,161.987 111.652 C 161.710 111.639,161.204 111.272,160.862 110.837 C 160.520 110.402,160.240 110.176,160.240 110.335 M226.999 113.371 C 228.150 114.558,229.144 115.529,229.209 115.529 C 229.433 115.529,227.304 113.276,226.107 112.245 C 225.446 111.677,225.848 112.183,226.999 113.371 M180.882 111.850 C 181.920 111.909,183.540 111.909,184.483 111.849 C 185.425 111.790,184.576 111.742,182.596 111.742 C 180.615 111.743,179.844 111.792,180.882 111.850 M189.272 111.845 C 189.809 111.912,190.686 111.912,191.223 111.845 C 191.759 111.778,191.320 111.724,190.248 111.724 C 189.175 111.724,188.736 111.778,189.272 111.845 M195.274 111.845 C 195.810 111.912,196.688 111.912,197.224 111.845 C 197.761 111.778,197.322 111.724,196.249 111.724 C 195.176 111.724,194.737 111.778,195.274 111.845 M201.275 111.845 C 201.812 111.912,202.689 111.912,203.226 111.845 C 203.762 111.778,203.323 111.724,202.251 111.724 C 201.178 111.724,200.739 111.778,201.275 111.845 M207.131 111.843 C 207.587 111.912,208.262 111.910,208.631 111.839 C 209.000 111.768,208.627 111.711,207.802 111.714 C 206.977 111.716,206.675 111.774,207.131 111.843 M214.029 111.835 C 214.317 111.910,214.790 111.910,215.079 111.835 C 215.368 111.759,215.131 111.698,214.554 111.698 C 213.976 111.698,213.740 111.759,214.029 111.835 M173.443 128.342 C 173.361 136.957,173.396 143.904,173.521 143.778 C 173.646 143.653,173.714 136.604,173.671 128.114 L 173.593 112.678 173.443 128.342 M256.159 113.053 C 256.082 113.177,257.053 113.242,258.317 113.197 C 262.349 113.054,262.811 112.931,259.508 112.879 C 257.743 112.851,256.236 112.929,256.159 113.053 M272.693 113.040 C 273.065 113.112,273.672 113.112,274.044 113.040 C 274.415 112.968,274.111 112.910,273.368 112.910 C 272.626 112.910,272.322 112.968,272.693 113.040 M216.954 113.405 C 216.954 113.672,219.620 116.277,219.724 116.110 C 219.768 116.038,219.164 115.355,218.380 114.592 C 217.596 113.830,216.954 113.295,216.954 113.405 M270.518 114.085 L 269.617 115.007 270.743 114.182 C 271.362 113.728,271.868 113.306,271.868 113.243 C 271.868 112.920,271.323 113.260,270.518 114.085 M272.350 114.546 C 271.859 115.038,272.205 115.592,272.918 115.455 C 273.331 115.377,273.668 115.428,273.668 115.570 C 273.668 115.713,273.811 115.829,273.986 115.829 C 274.161 115.829,274.221 115.694,274.119 115.529 C 274.017 115.364,274.136 115.229,274.383 115.229 C 274.631 115.229,274.917 115.364,275.019 115.529 C 275.121 115.694,275.053 115.829,274.869 115.829 C 274.684 115.829,274.616 115.963,274.717 116.126 C 274.832 116.313,275.052 116.285,275.309 116.051 C 275.648 115.742,275.582 115.570,274.918 115.032 C 274.357 114.578,274.054 114.489,273.903 114.732 C 273.740 114.993,273.544 114.991,273.110 114.721 C 272.792 114.525,272.451 114.446,272.350 114.546 M271.024 116.417 C 270.206 117.523,270.186 118.411,270.968 118.830 C 271.298 119.006,271.576 119.112,271.585 119.065 C 271.611 118.937,271.721 115.528,271.699 115.529 C 271.689 115.529,271.385 115.929,271.024 116.417 M276.139 117.629 C 276.139 118.207,276.200 118.443,276.276 118.155 C 276.351 117.866,276.351 117.393,276.276 117.104 C 276.200 116.815,276.139 117.052,276.139 117.629 M166.064 122.131 C 166.064 124.854,166.109 125.968,166.165 124.606 C 166.220 123.245,166.220 121.017,166.165 119.655 C 166.109 118.293,166.064 119.407,166.064 122.131 M255.664 118.026 C 255.664 118.479,254.563 118.530,243.136 118.605 L 230.608 118.686 243.145 118.758 C 255.930 118.831,256.887 118.753,255.851 117.716 C 255.748 117.614,255.664 117.753,255.664 118.026 M138.863 118.742 C 139.236 118.814,139.777 118.811,140.064 118.736 C 140.350 118.661,140.045 118.602,139.385 118.605 C 138.725 118.609,138.490 118.670,138.863 118.742 M151.900 118.823 C 162.768 118.974,163.233 119.003,163.669 119.580 C 163.918 119.910,164.126 120.019,164.131 119.822 C 164.164 118.615,163.264 118.527,151.696 118.598 L 140.585 118.665 151.900 118.823 M176.204 118.890 C 175.804 119.289,175.682 125.595,176.069 125.836 C 176.193 125.912,176.294 124.401,176.294 122.477 L 176.294 118.980 196.399 118.827 L 216.504 118.673 196.534 118.601 C 181.321 118.547,176.478 118.615,176.204 118.890 M217.179 118.741 C 217.551 118.813,218.158 118.813,218.530 118.741 C 218.901 118.670,218.597 118.611,217.854 118.611 C 217.112 118.611,216.808 118.670,217.179 118.741 M220.334 118.745 C 220.790 118.814,221.466 118.812,221.835 118.741 C 222.204 118.670,221.830 118.613,221.005 118.615 C 220.180 118.618,219.878 118.676,220.334 118.745 M224.531 118.752 C 225.645 118.810,227.468 118.810,228.582 118.752 C 229.696 118.694,228.785 118.647,226.557 118.647 C 224.329 118.647,223.417 118.694,224.531 118.752 M137.282 119.505 C 137.192 119.876,137.157 127.607,137.204 136.684 L 137.290 153.188 137.362 136.369 C 137.416 123.770,137.525 119.460,137.794 119.190 C 138.068 118.916,138.069 118.830,137.800 118.830 C 137.605 118.830,137.372 119.134,137.282 119.505 M274.873 119.227 C 274.868 119.886,275.808 119.805,275.992 119.130 C 276.101 118.730,276.079 118.730,275.792 119.130 C 275.505 119.530,275.436 119.530,275.173 119.130 C 274.923 118.748,274.877 118.763,274.873 119.227 M272.990 119.468 C 272.289 119.860,272.329 120.546,273.066 120.779 C 273.765 121.001,274.269 120.758,274.269 120.199 C 274.269 119.539,273.573 119.141,272.990 119.468 M273.609 120.586 C 273.161 120.757,272.977 120.399,273.213 119.818 C 273.418 119.316,273.448 119.320,273.660 119.880 C 273.786 120.210,273.763 120.528,273.609 120.586 M269.844 120.508 C 270.215 120.936,270.774 121.424,271.087 121.592 C 271.400 121.761,271.168 121.411,270.572 120.814 C 269.318 119.560,268.856 119.366,269.844 120.508 M276.069 120.975 C 275.491 121.482,275.290 121.759,275.622 121.591 C 276.170 121.314,277.530 120.013,277.241 120.042 C 277.174 120.049,276.647 120.469,276.069 120.975 M163.841 122.900 C 163.841 123.984,163.698 125.166,163.524 125.526 C 163.218 126.159,163.224 126.162,163.674 125.599 C 164.110 125.055,164.390 120.930,163.991 120.930 C 163.908 120.930,163.841 121.817,163.841 122.900 M149.962 126.256 C 152.314 126.307,156.163 126.307,158.515 126.256 C 160.866 126.205,158.942 126.164,154.239 126.164 C 149.535 126.164,147.611 126.205,149.962 126.256 M192.798 126.253 C 229.256 126.459,255.894 126.460,255.768 126.257 C 255.691 126.133,238.386 126.064,217.312 126.103 C 196.237 126.143,185.206 126.210,192.798 126.253 M144.769 135.934 C 144.769 140.968,144.810 143.027,144.861 140.510 C 144.911 137.993,144.911 133.875,144.861 131.358 C 144.810 128.841,144.769 130.900,144.769 135.934 M230.474 128.356 C 226.765 128.487,226.844 128.397,226.917 132.445 L 226.976 135.784 227.142 132.333 L 227.307 128.882 230.359 128.732 C 232.038 128.650,233.512 128.481,233.635 128.357 C 233.758 128.233,233.735 128.160,233.583 128.194 C 233.432 128.229,232.033 128.301,230.474 128.356 M234.058 133.773 L 234.207 138.785 234.291 134.006 C 234.337 131.378,234.270 129.123,234.141 128.994 C 234.013 128.866,233.976 131.016,234.058 133.773 M262.889 130.917 C 262.876 131.212,262.562 131.574,262.191 131.724 C 261.734 131.907,261.673 132.001,262.004 132.014 C 262.621 132.038,263.272 131.276,263.068 130.768 C 262.972 130.529,262.904 130.586,262.889 130.917 M258.283 131.950 C 258.816 132.016,259.761 132.017,260.383 131.952 C 261.006 131.887,260.570 131.833,259.415 131.831 C 258.260 131.830,257.750 131.883,258.283 131.950 M223.035 139.815 C 221.016 141.866,219.402 143.583,219.449 143.630 C 219.496 143.677,221.209 142.037,223.256 139.985 C 225.303 137.933,226.916 136.216,226.842 136.169 C 226.768 136.122,225.055 137.763,223.035 139.815 M231.969 141.178 L 230.029 143.286 232.105 141.271 C 233.247 140.164,234.120 139.215,234.045 139.163 C 233.970 139.112,233.036 140.018,231.969 141.178 M227.748 145.461 L 225.806 147.487 227.832 145.545 C 228.946 144.477,229.857 143.566,229.857 143.520 C 229.857 143.299,229.552 143.580,227.748 145.461 M168.577 144.258 C 169.449 144.318,170.800 144.318,171.578 144.256 C 172.356 144.195,171.643 144.145,169.992 144.146 C 168.342 144.146,167.705 144.197,168.577 144.258 M217.104 145.445 C 216.279 146.207,215.874 146.686,216.204 146.508 C 216.775 146.201,219.019 144.023,218.739 144.048 C 218.665 144.054,217.929 144.683,217.104 145.445 M144.336 145.423 C 144.336 146.730,144.674 146.758,159.919 146.716 C 167.874 146.694,174.314 146.607,174.228 146.521 C 174.143 146.436,167.596 146.387,159.680 146.413 L 145.287 146.460 144.811 145.781 C 144.550 145.408,144.336 145.247,144.336 145.423 M246.334 146.662 C 258.536 146.723,262.475 146.831,262.838 147.114 C 263.261 147.444,263.268 147.426,262.904 146.962 C 262.520 146.472,261.419 146.441,246.400 146.509 L 230.308 146.581 246.334 146.662 M228.887 147.628 C 228.348 148.118,227.984 148.524,228.078 148.528 C 228.172 148.533,228.703 148.132,229.257 147.637 C 229.812 147.142,230.176 146.737,230.066 146.737 C 229.957 146.737,229.426 147.138,228.887 147.628 M223.427 153.304 C 222.912 154.138,224.437 154.230,239.995 154.308 C 248.761 154.352,255.834 154.289,255.712 154.166 C 255.589 154.044,248.338 153.909,239.598 153.866 C 227.077 153.805,223.722 153.709,223.781 153.413 C 223.868 152.979,223.666 152.917,223.427 153.304 M137.696 153.713 C 138.080 154.203,139.117 154.234,152.850 154.166 L 167.592 154.094 152.915 154.014 C 141.795 153.952,138.123 153.843,137.762 153.561 C 137.339 153.231,137.332 153.249,137.696 153.713 M183.271 154.163 C 188.098 154.210,195.998 154.210,200.825 154.163 C 205.653 154.117,201.703 154.079,192.048 154.079 C 182.393 154.079,178.443 154.117,183.271 154.163 M168.875 156.559 C 169.581 156.623,170.661 156.622,171.276 156.557 C 171.890 156.493,171.313 156.441,169.992 156.442 C 168.672 156.443,168.169 156.496,168.875 156.559 M172.972 156.811 C 173.231 157.070,173.459 157.576,173.478 157.936 C 173.504 158.419,173.548 158.457,173.647 158.080 C 173.805 157.480,173.258 156.339,172.811 156.339 C 172.640 156.339,172.712 156.551,172.972 156.811 M219.055 156.524 C 219.055 156.689,219.253 157.087,219.495 157.407 C 219.738 157.727,219.936 157.854,219.936 157.689 C 219.936 157.524,219.738 157.127,219.495 156.807 C 219.253 156.486,219.055 156.359,219.055 156.524 M211.274 157.089 C 211.274 157.254,211.467 157.727,211.703 158.140 C 211.939 158.552,212.132 158.755,212.132 158.590 C 212.132 158.425,211.939 157.952,211.703 157.539 C 211.467 157.127,211.274 156.924,211.274 157.089 M173.581 171.643 C 173.581 178.657,173.620 181.527,173.668 178.020 C 173.716 174.512,173.716 168.773,173.668 165.266 C 173.620 161.759,173.581 164.629,173.581 171.643 M220.880 160.090 C 220.880 160.255,221.139 160.863,221.455 161.440 C 221.772 162.018,222.030 162.356,222.030 162.191 C 222.030 162.026,221.772 161.418,221.455 160.840 C 221.139 160.263,220.880 159.925,220.880 160.090 M223.505 165.866 C 223.654 166.155,224.014 166.903,224.305 167.528 C 224.597 168.152,224.884 168.615,224.944 168.555 C 225.085 168.413,223.604 165.341,223.395 165.341 C 223.307 165.341,223.357 165.578,223.505 165.866 M143.989 169.207 C 144.211 169.347,144.498 170.189,144.627 171.078 C 144.825 172.442,144.867 172.521,144.899 171.587 C 144.944 170.240,144.487 168.941,143.968 168.947 C 143.674 168.950,143.679 169.010,143.989 169.207 M137.237 172.093 C 137.238 173.413,137.291 173.916,137.354 173.210 C 137.418 172.505,137.417 171.424,137.352 170.810 C 137.288 170.195,137.236 170.773,137.237 172.093 M225.956 171.432 C 225.956 171.847,225.485 171.937,222.881 172.019 L 219.805 172.116 222.890 172.180 C 225.879 172.241,226.919 171.906,226.144 171.130 C 226.041 171.027,225.956 171.163,225.956 171.432 M166.064 177.944 C 166.064 180.668,166.109 181.782,166.165 180.420 C 166.220 179.059,166.220 176.830,166.165 175.469 C 166.109 174.107,166.064 175.221,166.064 177.944 M176.340 174.569 C 176.215 174.772,203.898 174.771,241.560 174.565 C 249.400 174.523,237.964 174.455,216.147 174.416 C 194.330 174.376,176.417 174.445,176.340 174.569 M137.197 180.570 C 137.131 186.956,137.322 187.872,138.710 187.838 C 138.916 187.833,138.815 187.678,138.485 187.494 C 138.155 187.309,137.817 187.100,137.734 187.028 C 137.652 186.957,137.511 184.107,137.422 180.696 L 137.260 174.494 137.197 180.570 M163.141 174.945 C 163.334 175.193,163.549 175.868,163.618 176.445 L 163.745 177.494 163.793 176.406 C 163.825 175.683,163.665 175.179,163.316 174.905 C 162.858 174.547,162.836 174.552,163.141 174.945 M175.903 178.260 C 175.863 180.394,175.961 181.543,176.204 181.785 C 176.727 182.309,262.282 182.309,262.806 181.785 C 263.004 181.587,263.157 181.216,263.147 180.960 C 263.135 180.675,263.022 180.757,262.856 181.171 L 262.584 181.847 219.439 181.771 L 176.294 181.695 176.128 178.395 L 175.963 175.094 175.903 178.260 M163.623 178.845 C 163.623 179.587,163.681 179.891,163.753 179.520 C 163.824 179.149,163.824 178.541,163.753 178.170 C 163.681 177.798,163.623 178.102,163.623 178.845 M163.396 181.130 C 163.065 181.634,163.016 181.870,163.257 181.790 C 163.464 181.721,163.743 181.368,163.878 181.005 C 164.203 180.125,164.024 180.172,163.396 181.130 M146.962 182.063 C 147.498 182.129,148.376 182.129,148.912 182.063 C 149.449 181.996,149.010 181.942,147.937 181.942 C 146.864 181.942,146.425 181.996,146.962 182.063 M154.014 182.068 C 155.128 182.126,156.950 182.126,158.065 182.068 C 159.179 182.010,158.267 181.963,156.039 181.963 C 153.811 181.963,152.899 182.010,154.014 182.068 M161.215 182.052 C 161.504 182.128,161.977 182.128,162.266 182.052 C 162.554 181.977,162.318 181.915,161.740 181.915 C 161.163 181.915,160.926 181.977,161.215 182.052 M228.807 184.527 C 230.623 184.620,232.311 184.807,232.558 184.943 C 232.806 185.080,232.746 184.978,232.426 184.718 C 231.967 184.346,231.172 184.258,228.675 184.302 L 225.506 184.357 228.807 184.527 M173.569 186.773 C 173.587 188.350,173.702 188.879,174.044 188.971 C 174.360 189.057,174.387 189.017,174.135 188.837 C 173.937 188.697,173.723 187.707,173.660 186.639 L 173.544 184.696 173.569 186.773 M232.883 185.596 C 232.883 185.761,233.142 186.369,233.458 186.947 C 233.775 187.524,234.033 187.862,234.033 187.697 C 234.033 187.532,233.775 186.924,233.458 186.347 C 233.142 185.769,232.883 185.431,232.883 185.596 M144.360 186.716 C 144.334 187.278,143.732 187.482,141.635 187.640 C 140.365 187.736,140.384 187.745,141.953 187.795 C 143.729 187.850,144.839 187.349,144.551 186.620 C 144.427 186.306,144.377 186.330,144.360 186.716 M221.355 189.247 C 220.545 190.058,221.286 196.266,222.191 196.240 C 222.364 196.235,222.269 196.093,221.980 195.925 C 221.316 195.538,221.181 189.508,221.830 189.246 C 222.040 189.162,222.062 189.084,221.880 189.071 C 221.702 189.058,221.465 189.137,221.355 189.247 M179.220 190.698 C 179.224 191.358,179.285 191.593,179.357 191.219 C 179.429 190.846,179.426 190.306,179.351 190.019 C 179.276 189.732,179.217 190.038,179.220 190.698 M179.220 194.299 C 179.224 194.959,179.285 195.193,179.357 194.820 C 179.429 194.447,179.426 193.907,179.351 193.620 C 179.276 193.333,179.217 193.638,179.220 194.299 M160.465 194.909 C 160.357 195.475,160.482 195.749,160.955 195.976 C 161.493 196.235,161.521 196.222,161.138 195.891 C 160.889 195.675,160.730 195.195,160.784 194.824 C 160.919 193.895,160.645 193.969,160.465 194.909 " stroke="none" fill="#6c6a6a" fill-rule="evenodd"></path><path id="path3" d="M161.050 104.986 C 160.499 105.630,160.556 110.474,161.123 111.157 C 161.413 111.506,162.082 111.628,163.710 111.628 C 164.918 111.628,165.992 111.766,166.096 111.935 C 166.201 112.104,166.272 119.325,166.254 127.981 L 166.222 143.720 166.907 143.891 C 167.284 143.985,168.875 144.022,170.443 143.974 L 173.293 143.886 173.371 128.160 C 173.425 117.154,173.549 112.312,173.783 112.030 C 174.056 111.701,177.852 111.628,194.713 111.628 L 215.310 111.628 217.597 113.878 L 219.884 116.129 224.196 116.124 C 226.567 116.122,228.673 116.015,228.875 115.886 C 229.265 115.638,218.998 105.103,217.952 104.677 C 216.684 104.161,161.500 104.462,161.050 104.986 M223.403 110.279 C 226.293 113.168,228.657 115.599,228.657 115.680 C 228.657 115.762,226.751 115.829,224.422 115.829 L 220.186 115.829 217.797 113.503 L 215.407 111.178 194.603 111.097 C 175.380 111.022,173.760 111.054,173.290 111.525 C 172.835 111.979,172.792 112.742,172.887 118.657 C 172.945 122.301,172.959 129.434,172.918 134.509 L 172.843 143.736 169.842 143.736 L 166.842 143.736 166.831 134.059 C 166.825 128.736,166.825 121.613,166.832 118.230 C 166.847 110.893,166.986 111.221,163.778 111.028 L 161.290 110.878 161.202 108.352 C 161.154 106.963,161.184 105.647,161.268 105.426 C 161.394 105.097,166.423 105.026,189.785 105.026 L 218.149 105.026 223.403 110.279 M256.111 113.503 C 256.036 113.710,255.939 114.959,255.895 116.279 L 255.814 118.680 216.354 118.754 C 194.651 118.795,176.721 118.893,176.509 118.973 C 176.220 119.082,176.145 119.961,176.209 122.500 L 176.294 125.881 216.054 126.032 L 255.814 126.182 255.964 128.582 C 256.166 131.817,256.069 131.733,259.590 131.733 C 262.560 131.733,262.583 131.728,262.888 130.925 C 263.205 130.090,263.265 116.760,262.962 114.404 L 262.798 113.128 259.521 113.128 C 257.172 113.128,256.207 113.234,256.111 113.503 M270.545 114.467 C 269.614 115.372,269.153 116.078,269.124 116.643 C 268.838 122.119,274.965 124.177,277.420 119.429 C 279.599 115.216,273.962 111.147,270.545 114.467 M262.586 114.104 C 262.727 118.842,262.554 130.664,262.340 130.878 C 262.187 131.031,260.791 131.117,259.238 131.070 L 256.414 130.983 256.264 128.432 L 256.114 125.881 216.269 125.805 L 176.424 125.729 176.509 122.505 L 176.594 119.280 216.354 119.130 L 256.114 118.980 256.195 116.579 C 256.308 113.228,256.095 113.428,259.555 113.428 C 262.471 113.428,262.566 113.450,262.586 114.104 M274.753 113.645 C 274.537 113.860,272.431 113.782,272.193 113.550 C 272.124 113.483,272.721 113.428,273.518 113.428 C 274.316 113.428,274.871 113.526,274.753 113.645 M274.600 114.801 C 276.024 115.788,276.554 117.011,276.191 118.477 C 275.701 120.455,274.811 120.143,274.924 118.032 C 275.009 116.460,274.950 116.252,274.344 115.984 C 273.972 115.821,273.668 115.602,273.668 115.499 C 273.668 115.396,273.331 115.377,272.918 115.455 C 272.022 115.627,271.861 114.837,272.693 114.353 C 273.400 113.941,273.339 113.926,274.600 114.801 M271.154 115.124 C 270.717 115.562,270.295 115.857,270.218 115.779 C 269.985 115.547,271.086 114.337,271.534 114.333 C 271.791 114.330,271.646 114.632,271.154 115.124 M271.660 117.254 C 271.628 118.203,271.594 119.018,271.585 119.065 C 271.507 119.455,270.368 118.370,270.368 117.907 C 270.368 117.476,271.457 115.531,271.699 115.529 C 271.710 115.529,271.692 116.305,271.660 117.254 M272.929 116.906 C 272.957 118.314,273.968 118.726,273.968 117.329 C 273.968 116.729,274.119 116.429,274.419 116.429 C 275.003 116.429,274.995 117.316,274.402 118.163 C 273.472 119.490,272.168 119.076,272.168 117.454 C 272.168 116.101,272.903 115.571,272.929 116.906 M269.748 117.704 C 269.733 118.732,269.679 118.854,269.469 118.334 C 269.235 117.754,269.363 116.429,269.652 116.429 C 269.716 116.429,269.759 117.003,269.748 117.704 M137.794 119.190 C 137.218 119.766,137.281 153.137,137.859 153.617 C 138.179 153.883,147.054 153.968,173.848 153.965 C 207.009 153.960,209.453 153.994,210.023 154.474 C 210.359 154.757,211.095 156.069,211.658 157.389 C 212.222 158.710,213.492 161.478,214.481 163.541 C 215.470 165.604,216.703 168.201,217.221 169.313 C 218.461 171.976,218.775 172.130,222.731 172.006 C 226.546 171.886,226.474 172.008,224.786 168.514 C 224.143 167.182,223.052 164.876,222.363 163.391 C 221.673 161.905,220.519 159.501,219.798 158.048 C 218.211 154.850,218.056 155.286,222.321 150.957 C 224.238 149.012,227.663 145.534,229.932 143.228 L 234.059 139.037 234.054 134.109 C 234.048 128.135,234.325 128.548,230.458 128.732 L 227.307 128.882 227.157 132.551 L 227.007 136.220 224.756 138.506 C 223.518 139.763,221.058 142.129,219.289 143.764 L 216.072 146.736 180.693 146.728 C 147.588 146.720,145.287 146.686,144.900 146.203 C 144.560 145.779,144.513 143.942,144.636 135.934 L 144.786 126.182 153.938 126.105 C 162.116 126.036,163.131 125.974,163.466 125.522 C 164.044 124.742,163.969 119.901,163.369 119.301 C 162.751 118.683,138.407 118.577,137.794 119.190 M276.832 119.709 C 276.537 120.186,276.062 119.797,276.272 119.250 C 276.387 118.949,276.551 118.891,276.743 119.083 C 276.905 119.245,276.945 119.527,276.832 119.709 M162.766 119.312 C 163.149 119.459,163.241 120.004,163.241 122.138 C 163.241 126.120,164.260 125.731,153.816 125.731 C 147.170 125.731,144.660 125.827,144.396 126.092 C 143.839 126.649,143.884 146.237,144.444 146.702 C 144.893 147.074,213.632 147.577,215.524 147.222 C 216.325 147.071,217.699 145.892,221.999 141.667 L 227.457 136.303 227.457 132.831 L 227.457 129.360 228.432 129.179 C 228.968 129.079,230.353 129.039,231.508 129.090 L 233.608 129.182 233.691 133.944 L 233.774 138.706 230.690 141.877 C 228.995 143.620,225.454 147.217,222.824 149.868 C 220.193 152.519,218.071 154.891,218.108 155.139 C 218.145 155.386,218.768 156.804,219.494 158.290 C 220.219 159.775,220.888 161.193,220.982 161.440 C 221.075 161.688,221.274 162.093,221.424 162.341 C 221.575 162.588,222.132 163.736,222.662 164.891 C 223.193 166.047,223.825 167.397,224.066 167.892 C 224.308 168.387,224.762 169.434,225.076 170.218 L 225.648 171.643 222.398 171.643 C 218.749 171.643,218.716 171.626,217.634 169.242 C 217.297 168.500,216.331 166.435,215.488 164.654 C 214.644 162.873,213.953 161.286,213.953 161.128 C 213.953 160.970,213.818 160.840,213.653 160.840 C 213.488 160.840,213.353 160.649,213.353 160.415 C 213.353 160.042,212.369 157.795,211.537 156.268 C 211.381 155.982,211.253 155.548,211.253 155.305 C 211.253 153.537,213.511 153.638,174.169 153.638 C 141.828 153.638,138.381 153.593,138.217 153.164 C 137.967 152.514,137.985 119.580,138.235 119.330 C 138.485 119.080,162.116 119.063,162.766 119.312 M274.269 120.199 C 274.269 120.758,273.765 121.001,273.066 120.779 C 272.329 120.546,272.289 119.860,272.990 119.468 C 273.573 119.141,274.269 119.539,274.269 120.199 M271.293 120.030 C 271.609 120.030,271.868 120.233,271.868 120.480 C 271.868 120.728,271.743 120.930,271.589 120.930 C 271.182 120.930,270.364 120.045,270.391 119.633 C 270.408 119.385,270.460 119.391,270.566 119.655 C 270.650 119.861,270.976 120.030,271.293 120.030 M275.829 120.690 C 275.549 120.970,275.389 120.970,275.109 120.690 C 274.829 120.410,274.909 120.330,275.469 120.330 C 276.029 120.330,276.109 120.410,275.829 120.690 M273.818 121.530 C 273.923 121.700,273.677 121.830,273.254 121.830 C 272.841 121.830,272.420 121.695,272.318 121.530 C 272.213 121.361,272.459 121.230,272.883 121.230 C 273.295 121.230,273.716 121.365,273.818 121.530 M226.777 150.036 C 224.560 152.225,223.534 153.437,223.732 153.635 C 223.921 153.823,229.891 153.962,239.922 154.011 L 255.814 154.089 255.898 163.691 C 255.944 168.972,255.908 173.597,255.817 173.967 L 255.653 174.641 215.974 174.718 L 176.294 174.794 176.294 178.245 L 176.294 181.695 219.437 181.771 L 262.580 181.847 262.858 181.116 C 263.269 180.034,263.251 148.837,262.839 148.837 C 262.611 148.837,262.540 153.562,262.598 164.884 C 262.643 173.709,262.576 181.035,262.448 181.163 C 262.188 181.423,178.179 181.654,177.119 181.397 C 176.475 181.241,176.444 181.096,176.444 178.239 L 176.444 175.244 198.425 175.235 C 210.514 175.231,228.240 175.234,237.816 175.243 C 251.483 175.256,255.340 175.177,255.750 174.877 C 256.232 174.523,256.267 173.689,256.193 164.141 L 256.114 153.788 240.285 153.711 C 221.774 153.620,223.033 154.002,227.458 149.816 L 230.388 147.045 246.062 147.064 C 262.659 147.084,262.475 147.073,262.872 148.054 C 263.124 148.679,263.128 148.679,263.147 148.072 C 263.188 146.729,263.280 146.737,246.283 146.737 L 230.121 146.737 226.777 150.036 M166.798 156.883 C 166.261 157.260,166.237 157.964,166.247 172.877 C 166.253 181.458,166.179 188.606,166.082 188.763 C 165.985 188.919,164.842 189.047,163.541 189.047 C 160.668 189.047,160.706 188.999,160.697 192.648 C 160.688 196.504,159.973 196.228,170.008 196.240 C 179.929 196.251,179.145 196.576,179.145 192.444 C 179.145 188.888,179.362 189.107,175.694 188.974 L 173.593 188.897 173.443 172.943 C 173.361 164.168,173.205 156.901,173.097 156.793 C 172.702 156.399,167.380 156.475,166.798 156.883 M172.690 157.234 C 172.788 157.392,172.883 164.514,172.901 173.059 C 172.922 182.579,173.048 188.742,173.226 188.972 C 173.417 189.219,174.368 189.347,175.996 189.347 C 178.872 189.347,178.834 189.302,178.841 192.699 C 178.847 195.927,179.697 195.649,169.810 195.649 L 161.140 195.649 161.140 192.973 C 161.140 189.247,161.066 189.347,163.836 189.347 C 166.736 189.347,166.801 189.273,166.839 185.886 C 166.883 181.937,166.910 159.014,166.872 158.158 C 166.854 157.756,166.962 157.351,167.113 157.258 C 167.600 156.958,172.506 156.937,172.690 157.234 M137.959 169.266 C 137.227 169.693,137.147 186.317,137.874 187.044 C 138.388 187.558,143.296 187.726,144.036 187.255 C 144.364 187.047,144.495 186.367,144.519 184.747 C 144.566 181.599,143.766 181.845,153.919 181.845 C 164.479 181.845,163.685 182.146,163.602 178.177 C 163.522 174.332,164.319 174.624,154.002 174.653 C 143.916 174.681,144.580 174.880,144.526 171.807 C 144.497 170.133,144.365 169.444,144.036 169.236 C 143.434 168.856,138.623 168.880,137.959 169.266 M143.974 171.954 C 144.092 175.323,143.336 175.072,153.878 175.244 L 163.091 175.394 163.136 177.794 C 163.208 181.632,164.237 181.245,153.965 181.245 C 143.472 181.245,144.116 181.032,143.975 184.554 L 143.886 186.797 141.035 186.797 L 138.185 186.797 138.105 178.399 C 138.008 168.214,137.684 169.195,141.106 169.318 L 143.886 169.417 143.974 171.954 M225.180 184.521 C 224.908 184.796,225.087 185.620,225.686 186.858 C 226.580 188.704,226.346 189.047,224.190 189.047 C 221.385 189.047,221.455 188.957,221.455 192.520 C 221.455 196.532,220.779 196.257,230.606 196.239 C 240.646 196.220,240.060 196.429,240.060 192.863 C 240.060 189.189,239.974 189.086,236.815 188.981 L 234.320 188.897 233.492 187.025 C 233.037 185.995,232.562 185.050,232.437 184.924 C 232.199 184.684,225.393 184.306,225.180 184.521 M232.219 185.474 C 232.570 185.802,232.858 186.318,232.858 186.622 C 232.858 186.925,233.048 187.330,233.279 187.522 C 233.510 187.714,233.783 188.204,233.885 188.609 C 234.061 189.313,234.178 189.348,236.390 189.352 C 239.678 189.358,239.552 189.204,239.495 193.173 L 239.460 195.649 230.758 195.649 C 224.011 195.649,222.049 195.565,222.027 195.274 C 221.611 189.827,221.803 189.347,224.407 189.347 C 227.100 189.347,227.286 189.109,226.218 187.021 C 225.199 185.029,225.232 185.218,225.881 185.074 C 227.747 184.659,231.606 184.903,232.219 185.474 " stroke="none" fill="#8c8c8c" fill-rule="evenodd"></path><path id="path4" d="M160.552 104.483 C 160.024 105.049,159.940 105.536,159.940 108.031 C 159.940 111.851,160.272 112.228,163.635 112.228 L 165.941 112.228 166.003 114.854 L 166.064 117.479 166.165 114.975 C 166.296 111.755,166.167 111.598,163.546 111.773 C 160.671 111.965,160.392 111.613,160.505 107.937 C 160.635 103.730,157.074 104.195,189.527 104.145 L 217.578 104.102 218.466 104.735 C 218.955 105.082,219.355 105.252,219.355 105.111 C 219.355 103.835,219.143 103.826,189.388 103.826 L 161.164 103.826 160.552 104.483 M224.306 110.415 C 229.442 115.537,229.781 116.012,228.450 116.212 C 227.651 116.333,227.658 116.342,228.592 116.384 C 230.623 116.477,230.146 115.712,224.968 110.563 C 222.237 107.848,219.891 105.626,219.754 105.627 C 219.617 105.627,221.665 107.781,224.306 110.415 M174.138 112.082 C 173.793 112.334,173.725 115.041,173.738 128.043 C 173.753 142.698,173.720 143.721,173.223 144.029 C 172.735 144.332,172.741 144.351,173.293 144.268 C 173.884 144.179,173.895 143.918,173.971 128.203 L 174.049 112.228 194.826 112.250 L 215.604 112.271 216.804 113.685 C 218.432 115.603,219.392 116.362,220.431 116.555 C 221.237 116.705,221.229 116.691,220.325 116.379 C 219.775 116.188,218.482 115.115,217.378 113.934 L 215.412 111.828 194.982 111.803 C 181.633 111.787,174.409 111.883,174.138 112.082 M257.243 112.743 C 257.700 112.812,258.375 112.811,258.744 112.739 C 259.113 112.668,258.740 112.612,257.914 112.614 C 257.089 112.616,256.787 112.674,257.243 112.743 M260.390 112.740 C 260.761 112.811,261.369 112.811,261.740 112.740 C 262.112 112.668,261.808 112.610,261.065 112.610 C 260.323 112.610,260.019 112.668,260.390 112.740 M255.709 115.304 C 255.755 117.860,255.881 117.564,256.029 114.553 C 256.076 113.604,256.013 112.828,255.889 112.828 C 255.765 112.828,255.684 113.942,255.709 115.304 M262.858 113.026 C 263.340 113.265,263.275 131.272,262.791 131.659 C 262.584 131.824,261.409 131.981,260.178 132.008 C 258.947 132.036,257.876 132.122,257.797 132.200 C 257.719 132.278,258.823 132.326,260.250 132.306 C 261.935 132.282,262.956 132.136,263.160 131.890 C 263.652 131.297,263.434 113.052,262.933 112.951 C 262.723 112.908,262.689 112.942,262.858 113.026 M270.068 114.029 C 269.407 114.689,268.867 115.463,268.867 115.749 C 268.867 116.096,269.107 115.922,269.589 115.223 C 270.348 114.124,271.202 113.318,271.901 113.041 C 272.201 112.922,272.171 112.869,271.793 112.852 C 271.504 112.839,270.728 113.368,270.068 114.029 M275.747 113.747 C 276.486 114.282,277.253 115.190,277.586 115.922 C 277.900 116.614,278.159 116.951,278.163 116.671 C 278.179 115.471,275.890 112.828,274.836 112.828 C 274.639 112.828,275.049 113.242,275.747 113.747 M272.918 114.629 C 273.020 114.794,273.298 114.929,273.536 114.929 C 273.774 114.929,273.968 114.794,273.968 114.629 C 273.968 114.464,273.690 114.329,273.351 114.329 C 273.011 114.329,272.816 114.464,272.918 114.629 M274.119 115.529 C 274.221 115.694,274.511 115.829,274.764 115.829 C 275.122 115.829,275.209 116.145,275.158 117.254 C 275.069 119.166,275.111 119.430,275.506 119.430 C 275.752 119.430,275.751 119.319,275.500 119.018 C 275.312 118.790,275.255 118.353,275.375 118.043 C 275.569 117.538,275.613 117.558,275.800 118.230 C 275.969 118.836,276.015 118.737,276.039 117.716 C 276.061 116.777,275.900 116.295,275.412 115.841 C 274.742 115.216,273.782 114.985,274.119 115.529 M225.581 116.341 C 225.953 116.412,226.560 116.412,226.932 116.341 C 227.303 116.269,226.999 116.211,226.257 116.211 C 225.514 116.211,225.210 116.269,225.581 116.341 M268.637 117.629 C 268.637 118.207,268.699 118.443,268.774 118.155 C 268.849 117.866,268.849 117.393,268.774 117.104 C 268.699 116.815,268.637 117.052,268.637 117.629 M150.207 118.158 C 139.304 118.228,137.863 118.292,137.379 118.730 C 136.770 119.281,136.520 152.977,137.118 153.923 C 137.305 154.218,138.001 154.372,139.289 154.404 C 140.841 154.442,140.901 154.429,139.617 154.330 C 136.976 154.126,137.134 155.281,137.139 136.242 C 137.142 126.275,137.258 119.399,137.428 119.130 C 137.672 118.744,139.493 118.667,150.209 118.591 C 164.070 118.494,164.329 118.525,163.988 120.264 C 163.831 121.061,163.835 121.063,164.140 120.362 C 164.508 119.520,163.928 118.383,163.035 118.195 C 162.736 118.131,156.963 118.115,150.207 118.158 M196.999 118.155 C 172.925 118.242,175.544 117.734,175.544 122.313 C 175.544 125.847,175.668 126.339,176.551 126.313 C 177.187 126.294,177.187 126.291,176.519 126.022 C 175.683 125.686,175.461 119.521,176.261 118.857 C 176.569 118.602,182.695 118.516,199.592 118.531 C 244.723 118.571,255.664 118.526,255.664 118.305 C 255.663 118.075,234.107 118.020,196.999 118.155 M277.910 118.651 C 277.625 122.646,270.603 123.239,269.080 119.398 C 268.948 119.064,268.910 119.061,268.891 119.383 C 268.809 120.783,271.232 122.426,273.385 122.429 C 275.746 122.431,278.391 120.363,278.081 118.756 C 277.978 118.219,277.943 118.198,277.910 118.651 M273.213 119.818 C 272.977 120.399,273.161 120.757,273.609 120.586 C 273.763 120.528,273.786 120.210,273.660 119.880 C 273.448 119.320,273.418 119.316,273.213 119.818 M165.746 122.131 C 165.746 123.533,165.798 124.107,165.861 123.406 C 165.924 122.704,165.924 121.557,165.861 120.855 C 165.798 120.154,165.746 120.728,165.746 122.131 M164.197 123.649 C 164.140 125.048,163.739 125.838,162.941 126.123 C 162.637 126.232,162.698 126.292,163.129 126.308 C 164.130 126.345,164.486 125.645,164.363 123.880 L 164.252 122.281 164.197 123.649 M144.935 126.407 C 144.841 132.671,144.947 145.911,145.093 146.148 C 145.237 146.380,149.067 146.480,157.945 146.486 C 164.901 146.490,180.722 146.557,193.102 146.636 L 215.611 146.780 217.408 145.226 C 218.396 144.371,220.926 141.958,223.031 139.864 L 226.857 136.056 226.857 132.581 C 226.857 130.148,226.970 129.011,227.236 128.791 C 227.887 128.251,233.543 128.201,233.974 128.732 C 234.208 129.020,234.343 129.054,234.349 128.825 C 234.366 128.179,233.655 128.010,230.553 127.920 C 226.584 127.806,226.557 127.838,226.557 132.531 L 226.557 135.896 221.680 140.750 C 218.998 143.419,216.482 145.727,216.089 145.878 C 215.160 146.234,145.573 146.139,145.352 145.781 C 145.262 145.636,145.205 141.200,145.224 135.924 C 145.243 130.648,145.186 126.332,145.098 126.332 C 145.009 126.332,144.936 126.365,144.935 126.407 M255.734 127.532 C 255.734 128.110,255.795 128.346,255.871 128.057 C 255.946 127.768,255.946 127.296,255.871 127.007 C 255.795 126.718,255.734 126.954,255.734 127.532 M166.084 135.555 C 166.091 143.583,166.128 144.181,166.623 144.227 C 166.985 144.260,167.010 144.230,166.702 144.134 C 166.317 144.014,166.238 142.743,166.164 135.463 L 166.077 126.932 166.084 135.555 M234.382 132.708 C 234.395 134.565,234.452 135.949,234.509 135.784 C 234.752 135.079,234.844 129.332,234.613 129.332 C 234.473 129.332,234.369 130.851,234.382 132.708 M255.683 131.047 C 255.672 131.413,255.925 131.852,256.244 132.022 C 256.978 132.415,257.464 132.419,257.464 132.033 C 257.464 131.868,257.190 131.733,256.855 131.733 C 256.503 131.733,256.130 131.447,255.973 131.058 L 255.702 130.383 255.683 131.047 M234.255 138.264 C 234.108 139.182,233.632 139.843,231.889 141.550 C 228.157 145.205,222.180 151.366,221.908 151.838 C 221.766 152.086,224.507 149.398,227.999 145.865 C 234.132 139.661,235.369 138.045,234.585 137.260 C 234.504 137.180,234.356 137.632,234.255 138.264 M230.791 146.088 C 230.397 146.144,229.723 146.515,229.294 146.913 C 228.865 147.311,228.420 147.637,228.305 147.637 C 228.191 147.637,228.012 147.907,227.907 148.237 C 227.802 148.567,227.523 148.837,227.287 148.837 C 227.050 148.837,226.857 148.991,226.857 149.179 C 226.857 149.367,226.620 149.705,226.332 149.930 C 225.911 150.258,225.902 150.306,226.285 150.174 C 226.549 150.083,227.286 149.396,227.924 148.648 C 229.915 146.312,228.864 146.437,246.587 146.437 C 258.521 146.437,262.535 146.526,262.806 146.797 C 263.326 147.317,263.326 181.266,262.806 181.785 C 262.282 182.309,176.727 182.309,176.204 181.785 C 175.752 181.334,175.712 175.751,176.155 174.924 C 176.459 174.355,177.222 174.344,216.115 174.344 C 237.922 174.344,255.696 174.275,255.612 174.192 C 255.121 173.701,176.283 174.055,175.919 174.549 C 175.241 175.470,175.411 181.753,176.124 182.135 C 177.107 182.661,262.698 182.559,263.136 182.031 C 263.545 181.539,263.476 146.647,263.066 146.236 C 262.833 146.004,232.376 145.864,230.791 146.088 M225.050 151.095 C 224.489 151.771,224.815 151.849,225.484 151.199 C 225.802 150.890,225.919 150.638,225.746 150.638 C 225.572 150.638,225.259 150.843,225.050 151.095 M223.440 152.578 C 222.111 154.607,221.542 154.539,239.774 154.539 L 255.643 154.539 255.745 157.540 L 255.847 160.541 255.831 157.465 L 255.814 154.389 239.937 154.311 C 222.753 154.227,222.793 154.231,223.880 152.704 C 224.219 152.228,224.368 151.838,224.211 151.838 C 224.054 151.838,223.707 152.171,223.440 152.578 M220.022 153.554 C 218.473 155.243,218.440 154.756,220.362 158.641 C 221.246 160.428,222.045 162.093,222.139 162.341 C 222.286 162.733,222.311 162.731,222.332 162.328 C 222.345 162.074,221.612 160.397,220.704 158.601 C 218.876 154.987,218.876 154.963,220.763 153.213 C 221.210 152.799,221.512 152.395,221.433 152.316 C 221.354 152.237,220.720 152.794,220.022 153.554 M147.131 154.463 C 150.237 154.512,155.233 154.512,158.234 154.463 C 161.235 154.414,158.695 154.374,152.588 154.374 C 146.482 154.374,144.026 154.414,147.131 154.463 M186.654 154.464 L 209.617 154.542 210.262 155.816 C 210.616 156.516,211.333 158.035,211.856 159.190 C 212.378 160.345,212.929 161.493,213.081 161.740 C 213.233 161.988,213.442 162.393,213.545 162.641 C 213.886 163.459,216.978 169.976,217.461 170.893 C 218.272 172.434,218.597 172.543,222.392 172.543 C 226.012 172.543,227.316 172.139,226.608 171.236 C 226.460 171.047,226.251 170.521,226.142 170.068 C 226.034 169.614,225.813 169.242,225.651 169.242 C 225.266 169.242,225.273 169.282,225.834 170.408 C 226.675 172.093,226.395 172.243,222.412 172.243 C 218.233 172.243,218.475 172.396,216.713 168.642 C 216.055 167.239,214.583 164.134,213.442 161.740 C 212.301 159.347,211.185 156.917,210.961 156.339 C 210.070 154.040,212.345 154.230,186.675 154.312 L 163.691 154.385 186.654 154.464 M166.082 156.489 C 166.005 156.737,165.876 157.149,165.795 157.405 C 165.713 157.664,165.780 157.789,165.945 157.687 C 166.108 157.586,166.242 157.324,166.242 157.104 C 166.242 156.112,172.900 155.923,173.422 156.900 C 173.612 157.254,173.724 163.214,173.727 172.998 C 173.729 181.543,173.801 188.605,173.887 188.691 C 173.973 188.777,174.044 181.627,174.044 172.803 C 174.044 160.725,173.955 156.670,173.683 156.399 C 173.107 155.823,166.265 155.904,166.082 156.489 M166.011 164.772 C 165.973 168.503,165.878 172.419,165.801 173.474 L 165.661 175.394 165.957 173.764 C 166.119 172.868,166.213 168.952,166.166 165.062 L 166.080 157.989 166.011 164.772 M255.792 167.292 C 255.792 170.923,255.835 172.367,255.888 170.501 C 255.941 168.635,255.941 165.664,255.888 163.899 C 255.835 162.134,255.792 163.661,255.792 167.292 M222.365 163.166 C 222.370 163.290,222.573 163.653,222.815 163.973 C 223.265 164.567,223.402 164.271,223.074 163.415 C 222.890 162.938,222.347 162.746,222.365 163.166 M223.261 164.756 C 223.276 165.163,225.356 169.018,225.356 168.640 C 225.356 168.391,225.003 167.513,224.572 166.689 C 223.851 165.314,223.248 164.425,223.261 164.756 M137.194 169.002 C 136.931 169.266,136.834 171.701,136.834 178.088 C 136.834 188.911,136.517 188.147,141.016 188.147 C 145.005 188.147,145.086 188.082,145.086 184.876 C 145.086 182.917,145.171 182.544,145.686 182.231 C 146.017 182.031,146.152 181.864,145.986 181.861 C 145.057 181.842,144.794 182.465,144.778 184.716 C 144.757 187.768,144.552 187.923,140.755 187.745 C 136.871 187.563,137.129 188.246,137.144 178.174 C 137.156 170.283,137.190 169.787,137.746 169.231 C 138.127 168.850,138.197 168.642,137.944 168.642 C 137.730 168.642,137.392 168.804,137.194 169.002 M141.422 168.866 C 144.824 168.980,145.142 169.278,144.823 172.056 C 144.508 174.805,144.025 174.672,154.144 174.630 C 164.531 174.587,163.791 174.335,163.844 177.944 C 163.898 181.590,163.907 181.538,163.166 181.836 L 162.491 182.107 163.148 182.127 C 164.121 182.155,164.207 181.818,164.162 178.154 C 164.109 173.875,164.966 174.225,154.089 174.044 L 145.086 173.893 145.187 171.897 C 145.346 168.753,145.205 168.630,141.550 168.705 L 138.485 168.768 141.422 168.866 M165.744 178.095 C 165.745 179.415,165.798 179.918,165.862 179.212 C 165.925 178.506,165.924 177.426,165.860 176.811 C 165.795 176.197,165.743 176.774,165.744 178.095 M150.263 182.057 C 150.634 182.129,151.242 182.129,151.613 182.057 C 151.984 181.986,151.680 181.927,150.938 181.927 C 150.195 181.927,149.891 181.986,150.263 182.057 M146.812 182.352 C 147.101 182.428,147.573 182.428,147.862 182.352 C 148.151 182.277,147.914 182.215,147.337 182.215 C 146.759 182.215,146.523 182.277,146.812 182.352 M165.999 185.296 C 165.918 188.577,165.860 188.679,163.985 188.824 L 162.491 188.939 164.055 188.993 C 166.082 189.063,166.297 188.678,166.165 185.219 L 166.065 182.596 165.999 185.296 M224.656 184.146 C 224.286 184.516,224.452 185.611,225.056 186.797 C 225.989 188.626,225.907 188.747,223.730 188.747 C 220.747 188.747,220.855 188.607,220.855 192.470 C 220.855 196.932,219.937 196.549,230.631 196.549 C 241.350 196.549,240.412 196.961,240.295 192.305 L 240.210 188.897 239.310 188.838 C 238.471 188.784,238.461 188.795,239.160 189.002 C 239.903 189.222,239.910 189.255,239.910 192.662 L 239.910 196.099 230.944 196.179 C 220.243 196.273,221.108 196.611,221.221 192.378 L 221.305 189.197 223.607 189.047 C 226.450 188.862,226.385 188.938,225.453 186.876 C 224.304 184.337,224.409 184.246,228.498 184.246 C 232.506 184.246,232.631 184.313,233.765 187.048 C 234.152 187.982,234.580 188.747,234.716 188.747 C 234.852 188.747,234.832 188.511,234.672 188.222 C 234.511 187.933,234.107 187.067,233.773 186.297 C 232.769 183.979,232.695 183.946,228.536 183.946 C 226.512 183.946,224.766 184.036,224.656 184.146 M160.300 189.107 C 159.490 189.917,159.834 195.924,160.710 196.256 C 162.444 196.916,179.086 196.620,179.459 195.923 C 179.643 195.579,179.726 195.230,179.644 195.147 C 179.561 195.065,179.343 195.279,179.159 195.623 C 178.799 196.295,161.895 196.623,160.876 195.977 C 160.228 195.567,160.387 189.632,161.060 189.122 C 161.471 188.811,161.479 188.747,161.108 188.747 C 160.862 188.747,160.498 188.909,160.300 189.107 M176.648 188.970 C 179.005 189.067,179.114 189.103,179.400 189.884 C 179.644 190.551,179.702 190.587,179.721 190.083 C 179.763 188.987,179.169 188.744,176.609 188.808 L 174.194 188.869 176.648 188.970 M235.934 188.962 C 236.388 189.031,237.131 189.031,237.584 188.962 C 238.038 188.893,237.667 188.837,236.759 188.837 C 235.851 188.837,235.480 188.893,235.934 188.962 " stroke="none" fill="#545454" fill-rule="evenodd"></path></g></svg>